<mxfile host="Electron" agent="Mozilla/5.0 (Windows NT 10.0; Win64; x64) AppleWebKit/537.36 (KHTML, like Gecko) draw.io/27.0.9 Chrome/134.0.6998.205 Electron/35.4.0 Safari/537.36" version="27.0.9">
  <diagram name="Page-1" id="F7jU00jBzNSKp8wFLw8Q">
    <mxGraphModel dx="595" dy="362" grid="1" gridSize="10" guides="1" tooltips="1" connect="1" arrows="1" fold="1" page="1" pageScale="1" pageWidth="850" pageHeight="1100" math="0" shadow="0">
      <root>
        <mxCell id="0" />
        <mxCell id="1" parent="0" />
        <mxCell id="XsDIdVd29dvD91tWOZAB-1" value="Input: &quot;ce aami facii ?!?!?&quot; =====&amp;gt;&amp;gt;&amp;gt;&amp;nbsp; Parsed: &quot;ce mai faci&quot;" style="text;html=1;align=center;verticalAlign=middle;resizable=0;points=[];autosize=1;strokeColor=none;fillColor=none;" vertex="1" parent="1">
          <mxGeometry x="223" y="160" width="340" height="30" as="geometry" />
        </mxCell>
        <mxCell id="XsDIdVd29dvD91tWOZAB-2" value="parser" style="text;html=1;align=center;verticalAlign=middle;resizable=0;points=[];autosize=1;strokeColor=none;fillColor=none;" vertex="1" parent="1">
          <mxGeometry x="365" y="20" width="60" height="30" as="geometry" />
        </mxCell>
        <mxCell id="XsDIdVd29dvD91tWOZAB-3" value="" style="curved=1;endArrow=classic;html=1;rounded=0;exitX=0.406;exitY=0.917;exitDx=0;exitDy=0;exitPerimeter=0;" edge="1" parent="1" source="XsDIdVd29dvD91tWOZAB-2" target="XsDIdVd29dvD91tWOZAB-1">
          <mxGeometry width="50" height="50" relative="1" as="geometry">
            <mxPoint x="400" y="120" as="sourcePoint" />
            <mxPoint x="450" y="70" as="targetPoint" />
            <Array as="points">
              <mxPoint x="360" y="80" />
              <mxPoint x="400" y="70" />
            </Array>
          </mxGeometry>
        </mxCell>
        <mxCell id="XsDIdVd29dvD91tWOZAB-4" value="" style="rounded=0;whiteSpace=wrap;html=1;fillColor=none;" vertex="1" parent="1">
          <mxGeometry x="370" y="160" width="70" height="30" as="geometry" />
        </mxCell>
        <mxCell id="XsDIdVd29dvD91tWOZAB-6" value="" style="whiteSpace=wrap;html=1;aspect=fixed;fillColor=none;" vertex="1" parent="1">
          <mxGeometry x="240" y="220" width="120" height="120" as="geometry" />
        </mxCell>
        <mxCell id="XsDIdVd29dvD91tWOZAB-7" value="key : value" style="text;html=1;align=center;verticalAlign=middle;resizable=0;points=[];autosize=1;strokeColor=none;fillColor=none;" vertex="1" parent="1">
          <mxGeometry x="260" y="220" width="80" height="30" as="geometry" />
        </mxCell>
        <mxCell id="XsDIdVd29dvD91tWOZAB-8" value="c : 2&lt;div&gt;e : 1&lt;/div&gt;&lt;div&gt;a : 3&lt;/div&gt;&lt;div&gt;m : 1&lt;/div&gt;&lt;div&gt;i : 3&lt;/div&gt;&lt;div&gt;f : 1&lt;/div&gt;" style="text;html=1;align=center;verticalAlign=middle;resizable=0;points=[];autosize=1;strokeColor=none;fillColor=none;" vertex="1" parent="1">
          <mxGeometry x="275" y="240" width="50" height="100" as="geometry" />
        </mxCell>
        <mxCell id="XsDIdVd29dvD91tWOZAB-9" value="" style="curved=1;endArrow=classic;html=1;rounded=0;exitX=-0.002;exitY=0.619;exitDx=0;exitDy=0;exitPerimeter=0;entryX=0.002;entryY=0.424;entryDx=0;entryDy=0;entryPerimeter=0;" edge="1" parent="1" source="XsDIdVd29dvD91tWOZAB-1" target="XsDIdVd29dvD91tWOZAB-6">
          <mxGeometry width="50" height="50" relative="1" as="geometry">
            <mxPoint x="170" y="170" as="sourcePoint" />
            <mxPoint x="220" y="120" as="targetPoint" />
            <Array as="points">
              <mxPoint x="220" y="170" />
              <mxPoint x="200" y="220" />
            </Array>
          </mxGeometry>
        </mxCell>
        <mxCell id="XsDIdVd29dvD91tWOZAB-10" value="=====&amp;gt;&amp;gt;&amp;gt;" style="text;html=1;align=center;verticalAlign=middle;resizable=0;points=[];autosize=1;strokeColor=none;fillColor=none;" vertex="1" parent="1">
          <mxGeometry x="355" y="265" width="80" height="30" as="geometry" />
        </mxCell>
        <mxCell id="XsDIdVd29dvD91tWOZAB-16" value="" style="whiteSpace=wrap;html=1;aspect=fixed;fillColor=none;" vertex="1" parent="1">
          <mxGeometry x="425" y="220" width="120" height="120" as="geometry" />
        </mxCell>
        <mxCell id="XsDIdVd29dvD91tWOZAB-19" value="key : value" style="text;html=1;align=center;verticalAlign=middle;resizable=0;points=[];autosize=1;strokeColor=none;fillColor=none;" vertex="1" parent="1">
          <mxGeometry x="445" y="220" width="80" height="30" as="geometry" />
        </mxCell>
        <mxCell id="XsDIdVd29dvD91tWOZAB-20" value="c : 2&lt;div&gt;e : 1&lt;/div&gt;&lt;div&gt;a : 2&lt;/div&gt;&lt;div&gt;m : 1&lt;/div&gt;&lt;div&gt;i : 2&lt;/div&gt;&lt;div&gt;f : 1&lt;/div&gt;" style="text;html=1;align=center;verticalAlign=middle;resizable=0;points=[];autosize=1;strokeColor=none;fillColor=none;" vertex="1" parent="1">
          <mxGeometry x="460" y="240" width="50" height="100" as="geometry" />
        </mxCell>
        <mxCell id="XsDIdVd29dvD91tWOZAB-21" value="" style="curved=1;endArrow=classic;html=1;rounded=0;exitX=1;exitY=0.482;exitDx=0;exitDy=0;exitPerimeter=0;entryX=1;entryY=0.5;entryDx=0;entryDy=0;" edge="1" parent="1" source="XsDIdVd29dvD91tWOZAB-1" target="XsDIdVd29dvD91tWOZAB-16">
          <mxGeometry width="50" height="50" relative="1" as="geometry">
            <mxPoint x="590" y="180" as="sourcePoint" />
            <mxPoint x="640" y="130" as="targetPoint" />
            <Array as="points">
              <mxPoint x="590" y="200" />
            </Array>
          </mxGeometry>
        </mxCell>
      </root>
    </mxGraphModel>
  </diagram>
</mxfile>
